<?xml version="1.0" standalone="no"?>
<!DOCTYPE svg PUBLIC "-//W3C//DTD SVG 20010904//EN"
 "http://www.w3.org/TR/2001/REC-SVG-20010904/DTD/svg10.dtd">
<svg version="1.0" xmlns="http://www.w3.org/2000/svg"
 width="512.000000pt" height="512.000000pt" viewBox="0 0 512.000000 512.000000"
 preserveAspectRatio="xMidYMid meet">

<g transform="translate(0.000000,512.000000) scale(0.100000,-0.100000)"
fill="#000000" stroke="none">
<path d="M779 3581 l-24 -19 0 -1002 0 -1002 24 -19 c21 -17 41 -19 195 -19
167 0 173 1 194 23 l22 23 0 995 0 996 -23 21 c-22 21 -32 22 -194 22 -153 0
-173 -2 -194 -19z"/>
<path d="M3952 3577 l-22 -23 0 -995 0 -996 23 -21 c22 -21 32 -22 196 -22
169 0 172 0 196 25 l25 24 0 991 0 991 -25 24 c-24 25 -27 25 -198 25 -168 0
-174 -1 -195 -23z"/>
<path d="M260 3290 c-20 -20 -20 -33 -20 -728 l0 -709 23 -21 c22 -21 32 -22
194 -22 153 0 173 2 194 19 l24 19 0 712 0 712 -24 19 c-21 17 -41 19 -197 19
-161 0 -176 -2 -194 -20z"/>
<path d="M4472 3294 l-22 -15 0 -719 0 -719 22 -15 c18 -13 55 -16 195 -16
160 0 175 2 193 20 20 20 20 33 20 730 0 697 0 710 -20 730 -18 18 -33 20
-193 20 -140 0 -177 -3 -195 -16z"/>
<path d="M0 2560 l0 -140 80 0 80 0 0 140 0 140 -80 0 -80 0 0 -140z"/>
<path d="M1270 2560 l0 -140 1290 0 1290 0 0 140 0 140 -1290 0 -1290 0 0
-140z"/>
<path d="M4960 2560 l0 -140 80 0 80 0 0 140 0 140 -80 0 -80 0 0 -140z"/>
</g>
</svg>
